<svg width="256" height="256" viewBox="0 0 256 256" fill="none" xmlns="http://www.w3.org/2000/svg">
<g id="Group 712">
<rect id="Rectangle 38" width="256" height="256" rx="30" fill="#E5E5E5"/>
<path id="clock 1 (Traced)" fill-rule="evenodd" clip-rule="evenodd" d="M117.376 17.2787C96.3248 19.4597 76.3894 27.4848 59.4241 40.6078C54.6096 44.3317 44.3157 54.6233 40.5909 59.4367C33.7558 68.2693 27.1761 80.0387 23.4996 90.0102C21.4419 95.5907 18.8446 105.946 17.834 112.598C16.7231 119.908 16.7218 136.113 17.8314 143.439C18.8251 150 21.4519 160.43 23.5274 166.054C27.2378 176.111 33.7575 187.778 40.5957 196.6C44.1297 201.159 54.0579 211.198 58.5051 214.708C67.4827 221.795 79.7044 228.7 89.9763 232.488C95.611 234.567 106.044 237.192 112.597 238.18C119.018 239.149 135.696 239.293 141.707 238.431C162.63 235.432 180.307 228.023 196.668 215.396C201.134 211.949 211.178 202.005 214.727 197.518C221.731 188.663 228.795 176.17 232.519 166.054C234.594 160.417 237.219 149.985 238.211 143.439C238.803 139.526 239 135.681 239 128.018C239 116.268 238.405 111.27 235.764 100.841C233.667 92.5596 231.741 87.3466 227.749 79.1508C219.224 61.6485 206.026 46.6004 189.499 35.5403C175.634 26.262 160.769 20.5444 143.662 17.9112C138.201 17.0702 122.932 16.7032 117.376 17.2787ZM136.928 30.2878C171.023 33.4123 201.213 54.3188 216.235 85.2095C220.814 94.6259 223.414 102.956 225.191 113.901C226.274 120.573 226.274 135.463 225.191 142.135C223.414 153.081 220.814 161.41 216.235 170.827C206.541 190.761 190.81 206.483 170.817 216.218C161.436 220.786 153.093 223.389 142.141 225.166C135.463 226.25 120.571 226.249 113.901 225.165C95.1022 222.11 78.776 214.715 64.5878 202.832C42.9536 184.711 29.8307 156.464 29.8307 128.018C29.8307 99.5604 42.8906 71.4433 64.5878 53.1895C84.7482 36.2284 111.014 27.9131 136.928 30.2878ZM124.876 44.2105C121.928 45.7664 121.504 47.2937 121.504 56.3461C121.504 65.4858 121.921 66.9483 124.968 68.503C127.14 69.6106 128.902 69.6106 131.074 68.503C134.121 66.9483 134.538 65.4858 134.538 56.3461C134.538 49.3322 134.445 48.3092 133.663 46.7785C132.06 43.6367 128.136 42.4899 124.876 44.2105ZM69.4717 67.2033C65.0687 69.8869 65.3216 76.1128 69.9275 78.4311C72.7033 79.828 74.9348 79.4484 77.1875 77.1961C79.4403 74.9439 79.82 72.7129 78.4227 69.9377C76.7135 66.5439 72.6099 65.2899 69.4717 67.2033ZM180.151 67.1481C177.987 68.3084 176.496 71.3321 176.902 73.7372C177.32 76.2101 179.832 78.7291 182.296 79.1452C184.718 79.5539 187.809 78.0414 188.926 75.9C191.924 70.1575 185.846 64.0958 180.151 67.1481ZM124.876 83.3043C123.883 83.8286 122.912 84.8277 122.378 85.8741C121.538 87.5195 121.504 88.4057 121.504 108.476C121.504 126.734 121.591 129.539 122.197 130.755C123.154 132.672 162.177 171.749 164.174 172.788C165.06 173.25 166.388 173.628 167.124 173.628C169.28 173.628 171.783 172.091 172.766 170.164C173.865 168.011 173.875 166.224 172.801 164.163C172.34 163.276 163.541 154.147 153.25 143.875L134.538 125.199V106.393C134.538 88.4017 134.5 87.5121 133.663 85.8724C132.06 82.7305 128.136 81.5838 124.876 83.3043ZM46.6705 122.398C44.8362 123.366 43.2985 125.929 43.2985 128.018C43.2985 130.174 44.8353 132.676 46.763 133.659C48.2941 134.44 49.3173 134.534 56.3328 134.534C65.4745 134.534 66.9374 134.117 68.4924 131.07C69.6003 128.899 69.6003 127.137 68.4924 124.966C66.9305 121.906 65.4854 121.499 56.2415 121.522C49.1909 121.539 48.1121 121.638 46.6705 122.398ZM190.047 122.398C188.213 123.366 186.675 125.929 186.675 128.018C186.675 130.174 188.212 132.676 190.139 133.659C191.671 134.44 192.694 134.534 199.709 134.534C206.725 134.534 207.748 134.44 209.279 133.659C211.207 132.676 212.743 130.174 212.743 128.018C212.743 125.863 211.207 123.36 209.279 122.377C207.74 121.592 206.747 121.505 199.618 121.522C192.567 121.539 191.489 121.638 190.047 122.398ZM69.8471 177.626C66.5351 179.393 65.319 183.483 67.1924 186.554C69.8432 190.901 75.9914 190.695 78.4023 186.179C81.3463 180.663 75.364 174.682 69.8471 177.626ZM181.18 177.143C180.427 177.361 179.225 178.207 178.508 179.023C174.812 183.233 177.783 189.703 183.409 189.698C190.001 189.692 192.11 180.663 186.225 177.646C184.188 176.601 183.341 176.517 181.18 177.143ZM124.876 187.555C121.928 189.111 121.504 190.638 121.504 199.69C121.504 206.704 121.597 207.727 122.378 209.258C123.362 211.185 125.865 212.722 128.021 212.722C130.177 212.722 132.68 211.185 133.663 209.258C134.445 207.727 134.538 206.704 134.538 199.69C134.538 192.676 134.445 191.653 133.663 190.123C132.06 186.981 128.136 185.834 124.876 187.555Z" fill="#768DC5"/>
</g>
</svg>
